<svg version="1.1" id="Layer_1" xmlns="http://www.w3.org/2000/svg" xmlns:xlink="http://www.w3.org/1999/xlink" x="0px" y="0px"
	 width="100%" viewBox="0 0 1024 1024" enable-background="new 0 0 1024 1024" xml:space="preserve">
<path fill="#FCFCFC" opacity="1.000000" stroke="none" 
	d="
M468.000000,1025.000000 
	C312.000000,1025.000000 156.500000,1025.000000 1.000000,1025.000000 
	C1.000000,683.666687 1.000000,342.333344 1.000000,1.000000 
	C342.333344,1.000000 683.666687,1.000000 1025.000000,1.000000 
	C1025.000000,342.333344 1025.000000,683.666687 1025.000000,1025.000000 
	C839.500000,1025.000000 654.000000,1025.000000 468.000000,1025.000000 
M290.086426,287.447205 
	C285.067352,287.531281 280.048248,287.615387 274.174438,287.398865 
	C271.775330,287.499908 269.376251,287.600983 266.076202,287.443237 
	C258.955017,287.436523 251.833069,287.361572 244.712799,287.439148 
	C234.138840,287.554352 223.566040,287.777496 212.219543,288.361481 
	C212.183365,289.025696 212.115646,289.689941 212.115463,290.354156 
	C212.079163,417.496307 212.047043,544.638489 212.025848,671.780640 
	C212.025650,672.896606 212.174332,674.012512 212.263382,675.267822 
	C238.932327,675.267822 265.322479,675.267822 291.800323,675.267822 
	C291.800323,673.292419 291.800323,671.648865 291.989380,669.084290 
	C292.004730,637.344971 292.041840,605.605713 292.024414,573.866394 
	C292.017670,561.575867 291.887329,549.285522 291.989441,536.109924 
	C291.931641,533.408386 291.873840,530.706787 292.149200,527.262573 
	C293.724792,526.999756 295.300293,526.508057 296.875946,526.507690 
	C331.274902,526.499512 365.673828,526.569153 400.072784,526.563782 
	C407.701111,526.562561 415.329346,526.333557 423.366119,526.426270 
	C423.366119,526.426270 423.820190,526.338806 423.799377,526.178162 
	C423.799377,526.178162 423.664276,526.267578 424.105530,527.077209 
	C424.216949,529.229309 424.422882,531.381287 424.425842,533.533508 
	C424.488037,578.852234 424.527466,624.171021 424.570984,669.489746 
	C424.572845,671.415405 424.571228,673.341064 424.571228,675.374023 
	C451.445343,675.374023 477.567017,675.374023 503.841064,675.374023 
	C503.841064,546.068054 503.841064,416.920532 503.841064,287.850647 
	C477.060760,287.850647 450.688385,287.850647 424.539673,287.850647 
	C424.539673,289.936523 424.538208,291.581085 424.539825,293.225647 
	C424.589569,343.542694 424.644226,393.859741 424.663544,444.176788 
	C424.664062,445.461273 424.276886,446.745850 424.034912,447.990448 
	C424.034912,447.990448 424.018158,448.041260 423.082581,447.950378 
	C416.389282,447.993042 409.695984,448.035706 402.081573,447.889954 
	C374.053741,447.946533 346.025879,448.003082 317.340240,447.886169 
	C316.894165,447.943939 316.448120,448.001678 315.088898,447.870819 
	C310.725311,447.933838 306.361755,447.996826 301.127502,447.883759 
	C298.037231,447.607758 294.946960,447.331757 292.016785,446.123413 
	C292.038391,402.223267 292.071625,358.323151 292.071533,314.423004 
	C292.071533,305.947632 291.941193,297.472260 292.017700,288.470642 
	C291.666656,288.233582 291.315582,287.996521 290.086426,287.447205 
M652.208313,703.841614 
	C644.430847,703.841614 636.653320,703.841614 628.961792,703.841614 
	C628.961792,715.956177 628.961792,727.539368 628.961792,739.184631 
	C690.332886,739.184631 751.394531,739.184631 812.318115,739.184631 
	C812.318115,727.234558 812.318115,715.655396 812.318115,704.048828 
	C808.292542,704.048828 804.646851,704.048828 800.080322,703.859131 
	C758.856018,703.854309 717.631653,703.839783 676.407349,703.853333 
	C668.601135,703.855835 660.794861,703.969360 652.208313,703.841614 
M422.185669,738.791260 
	C422.775360,739.007202 423.364258,739.409058 423.954803,739.411499 
	C433.932556,739.453125 443.910522,739.444580 453.888458,739.448059 
	C501.782623,739.464539 549.676819,739.494568 597.570923,739.434937 
	C599.041809,739.433105 600.511536,738.500000 602.179199,737.081604 
	C602.119568,726.387756 602.059998,715.693848 602.058533,704.401184 
	C601.710144,704.291931 601.361755,704.182678 600.089905,703.890564 
	C540.745239,703.890564 481.400635,703.890564 422.181549,703.890564 
	C422.181549,715.737061 422.181549,726.873657 422.185669,738.791260 
M530.129883,470.902863 
	C530.134399,492.314972 530.106812,513.727173 530.156128,535.139221 
	C530.183655,547.080383 530.339111,559.021240 530.774963,571.892761 
	C555.853210,571.938843 580.931458,571.984924 606.863281,571.758118 
	C606.922791,559.288757 607.052368,546.819214 607.026184,534.350037 
	C606.981140,512.894409 606.838989,491.438965 606.839722,469.151550 
	C606.355835,468.818085 605.872498,468.193604 605.388062,468.192810 
	C581.043030,468.153137 556.697815,468.152161 532.353088,468.250336 
	C531.672424,468.253113 530.996338,469.378967 530.129883,470.902863 
M650.696960,675.162842 
	C655.801147,674.784424 660.905396,674.406067 666.754761,674.155457 
	C667.498291,674.047668 668.241882,673.939880 669.788086,673.971802 
	C671.860413,673.652832 673.932739,673.333862 676.756348,673.110291 
	C677.496216,672.975220 678.236084,672.840088 679.661987,672.827209 
	C680.778320,672.562256 681.894714,672.297241 683.522705,672.119202 
	C683.682373,672.052612 683.842041,671.985962 684.701538,672.041260 
	C685.819092,671.745544 686.936707,671.449829 688.891113,671.210327 
	C703.177063,666.830811 717.999878,663.699951 731.646179,657.832825 
	C769.485535,641.564087 794.819458,613.442139 805.868469,573.464722 
	C815.764343,537.659790 815.647217,501.645081 805.409851,465.884369 
	C792.538025,420.920837 763.674072,390.979950 719.482361,375.793976 
	C694.470154,367.198761 668.546265,364.115173 642.283875,363.900848 
	C606.625793,363.609863 570.963501,363.837585 535.302979,363.859833 
	C533.697510,363.860840 532.092224,364.029785 530.598877,364.114197 
	C530.598877,389.706909 530.598877,414.913910 530.598877,440.574982 
	C533.803467,440.574982 536.612427,440.572021 539.421387,440.575439 
	C574.748535,440.618164 610.077271,440.487183 645.401794,440.814148 
	C655.693176,440.909393 666.082825,441.622498 676.236206,443.247437 
	C705.330872,447.903870 722.721008,464.420654 729.123657,493.118713 
	C733.392639,512.253723 733.268616,531.544312 728.788452,550.624634 
	C723.577515,572.816956 710.135620,587.760803 688.166443,594.624329 
	C684.835510,595.664978 681.406067,596.390625 677.183411,597.209656 
	C673.455139,597.804993 669.726807,598.400330 665.250732,598.888855 
	C664.506165,598.992554 663.761658,599.096191 662.086487,599.062439 
	C618.160400,599.062439 574.234375,599.062439 530.085327,599.062439 
	C530.085327,624.912048 530.085327,649.988647 530.085327,675.338562 
	C531.733643,675.422791 533.188293,675.560669 534.643005,675.561890 
	C567.122314,675.588074 599.601624,675.618103 632.080933,675.588989 
	C636.061951,675.585449 640.042664,675.249817 644.869690,675.225647 
	C646.584656,675.134827 648.299561,675.044006 650.696960,675.162842 
M234.500031,739.524902 
	C288.063873,739.524902 341.627716,739.524902 395.293640,739.524902 
	C395.293640,727.242065 395.293640,715.670410 395.293640,704.122681 
	C334.090576,704.122681 273.209045,704.122681 212.289444,704.122681 
	C212.289444,716.021179 212.289444,727.578308 212.289444,739.524109 
	C219.556778,739.524109 226.528427,739.524109 234.500031,739.524902 
z"/>
<path fill="#0E3F40" opacity="1.000000" stroke="none" 
	d="
M291.870972,288.996887 
	C291.941193,297.472260 292.071533,305.947632 292.071533,314.423004 
	C292.071625,358.323151 292.038391,402.223267 291.719727,446.802307 
	C292.372131,449.052307 293.321625,450.623383 294.444672,452.481689 
	C290.309906,454.943085 291.484985,458.112396 294.811646,460.054474 
	C297.573761,461.666870 301.107788,462.361725 304.366669,462.620026 
	C308.841400,462.974731 313.379211,462.458344 317.890015,462.457764 
	C321.290619,462.457336 324.700531,462.899414 328.089661,462.754578 
	C333.533875,462.521973 338.623932,459.142059 344.359650,460.921844 
	C345.147949,461.166504 346.214203,460.321442 347.169983,460.258759 
	C349.490051,460.106598 352.028717,459.503662 354.099762,460.204315 
	C357.406799,461.323059 359.706329,460.949646 362.456177,457.127838 
	C351.188812,456.383789 340.828796,455.681580 330.466125,455.020477 
	C320.090454,454.358521 309.712128,453.737671 298.973175,453.076508 
	C300.361511,450.774078 301.179810,449.416962 301.998169,448.059814 
	C306.361755,447.996826 310.725311,447.933838 315.585571,448.256226 
	C316.403137,448.950958 316.724060,449.260284 317.044983,449.569641 
	C317.362671,449.066315 317.680359,448.562988 317.998047,448.059631 
	C346.025879,448.003082 374.053741,447.946533 402.610046,448.334595 
	C409.442780,453.025604 416.539734,448.974335 423.115448,450.576019 
	C423.205231,450.597900 423.708099,448.923798 424.018158,448.041260 
	C424.018158,448.041260 424.034912,447.990448 424.438629,447.894165 
	C425.229034,445.953644 425.951202,444.109833 425.953491,442.265076 
	C426.015015,392.949799 426.045959,343.634277 425.921936,294.319244 
	C425.911774,290.277222 426.885193,288.870331 431.158661,288.909698 
	C453.315369,289.113770 475.475586,289.090759 497.632935,288.923553 
	C501.608887,288.893555 503.093842,289.767334 503.089905,294.108215 
	C502.976837,419.062561 502.982574,544.017029 503.073029,668.971436 
	C503.075836,672.850830 502.084839,674.121094 498.053009,674.087280 
	C475.729401,673.899841 453.402252,673.881165 431.079163,674.097107 
	C426.690186,674.139526 425.878357,672.542114 425.922455,668.602722 
	C426.108948,651.944214 426.002258,635.282349 426.002350,618.621765 
	C426.002563,589.465759 426.030884,560.309570 425.931366,531.153931 
	C425.925415,529.415466 427.478363,526.444092 423.664276,526.267578 
	C423.664276,526.267578 423.799377,526.178162 423.779602,526.050781 
	C423.492432,526.018799 423.225037,526.114136 422.957642,526.209473 
	C415.329346,526.333557 407.701111,526.562561 400.072784,526.563782 
	C365.673828,526.569153 331.274902,526.499512 296.875946,526.507690 
	C295.300293,526.508057 293.724792,526.999756 291.614563,527.737000 
	C289.778503,531.268372 288.585022,534.316345 291.813293,536.995056 
	C291.887329,549.285522 292.017670,561.575867 292.024414,573.866394 
	C292.041840,605.605713 292.004730,637.344971 291.557373,669.618286 
	C287.887207,671.433960 284.666565,673.771423 281.408051,673.825439 
	C260.917389,674.165405 240.416245,673.840332 219.923569,674.112122 
	C215.023468,674.177124 213.894440,672.672363 213.899261,667.946899 
	C214.027710,541.636536 214.004517,415.326050 214.474945,289.010742 
	C230.657074,289.005157 246.371490,289.042511 262.085114,288.946625 
	C263.718231,288.936676 265.346588,288.135864 266.977142,287.702026 
	C269.376251,287.600983 271.775330,287.499908 274.776520,287.872681 
	C280.582336,288.561066 285.786041,288.775696 291.210083,288.992737 
	C291.430359,288.995117 291.870972,288.996887 291.870972,288.996887 
M368.895996,457.040405 
	C368.614838,457.793091 368.333710,458.545776 368.052582,459.298492 
	C369.566986,459.118683 371.081421,458.938904 372.595825,458.759094 
	C372.521973,458.285248 372.448090,457.811371 372.374237,457.337524 
	C371.453339,457.228363 370.532410,457.119202 368.895996,457.040405 
z"/>
<path fill="#0E3F40" opacity="1.000000" stroke="none" 
	d="
M678.022217,597.261963 
	C681.406067,596.390625 684.835510,595.664978 688.166443,594.624329 
	C710.135620,587.760803 723.577515,572.816956 728.788452,550.624634 
	C733.268616,531.544312 733.392639,512.253723 729.123657,493.118713 
	C722.721008,464.420654 705.330872,447.903870 676.236206,443.247437 
	C666.082825,441.622498 655.693176,440.909393 645.401794,440.814148 
	C610.077271,440.487183 574.748535,440.618164 539.421387,440.575439 
	C536.612427,440.572021 533.803467,440.574982 530.598877,440.574982 
	C530.598877,414.913910 530.598877,389.706909 530.598877,364.114197 
	C532.092224,364.029785 533.697510,363.860840 535.302979,363.859833 
	C570.963501,363.837585 606.625793,363.609863 642.283875,363.900848 
	C668.546265,364.115173 694.470154,367.198761 719.482361,375.793976 
	C763.674072,390.979950 792.538025,420.920837 805.409851,465.884369 
	C815.647217,501.645081 815.764343,537.659790 805.868469,573.464722 
	C794.819458,613.442139 769.485535,641.564087 731.646179,657.832825 
	C717.999878,663.699951 703.177063,666.830811 688.289307,670.915405 
	C686.458862,671.053467 685.230286,671.486450 684.001709,671.919373 
	C683.842041,671.985962 683.682373,672.052612 683.052979,671.823242 
	C681.380859,671.919861 680.178406,672.312500 678.975952,672.705078 
	C678.236084,672.840088 677.496216,672.975220 676.115356,672.792480 
	C673.311401,672.927185 671.148438,673.379639 668.985413,673.832092 
	C668.241882,673.939880 667.498291,674.047668 666.086853,673.803284 
	C660.284119,673.951843 655.149353,674.452576 650.014526,674.953247 
	C648.299561,675.044006 646.584656,675.134827 644.151245,674.848755 
	C641.627869,674.324341 639.822937,674.049500 638.017822,674.048157 
	C604.233215,674.022522 570.448059,673.933167 536.664734,674.139526 
	C531.948303,674.168335 530.785461,672.726196 530.909912,668.230286 
	C531.441040,649.047913 531.685364,629.856995 531.934692,610.667908 
	C531.974243,607.625854 531.503723,604.577209 531.225342,600.964966 
	C533.701355,600.964966 535.658752,600.964905 537.616211,600.964905 
	C577.558594,600.965332 617.500977,600.989441 657.443115,600.891113 
	C659.302490,600.886597 661.159180,599.788635 663.017090,599.199890 
	C663.761658,599.096191 664.506165,598.992554 665.909180,599.219299 
	C670.670349,600.211365 674.701416,600.514832 678.022217,597.261963 
z"/>
<path fill="#0F4041" opacity="1.000000" stroke="none" 
	d="
M606.737610,469.983459 
	C606.838989,491.438965 606.981140,512.894409 607.026184,534.350037 
	C607.052368,546.819214 606.922791,559.288757 606.146606,571.591003 
	C603.631165,571.281799 601.832520,571.018860 600.033447,571.015808 
	C576.834656,570.976440 553.635742,570.974060 530.436890,570.962280 
	C530.339111,559.021240 530.183655,547.080383 530.156128,535.139221 
	C530.106812,513.727173 530.134399,492.314972 530.672119,470.443237 
	C556.388733,469.983551 581.563171,469.983490 606.737610,469.983459 
z"/>
<path fill="#0E3F40" opacity="1.000000" stroke="none" 
	d="
M234.000061,739.524536 
	C226.528427,739.524109 219.556778,739.524109 212.289444,739.524109 
	C212.289444,727.578308 212.289444,716.021179 212.289444,704.122681 
	C273.209045,704.122681 334.090576,704.122681 395.293640,704.122681 
	C395.293640,715.670410 395.293640,727.242065 395.293640,739.524902 
	C341.627716,739.524902 288.063873,739.524902 234.000061,739.524536 
z"/>
<path fill="#0D3D3F" opacity="1.000000" stroke="none" 
	d="
M602.000366,705.000000 
	C602.059998,715.693848 602.119568,726.387756 601.613037,737.539551 
	C541.425110,738.001770 481.803314,738.006042 422.181549,738.010254 
	C422.181549,726.873657 422.181549,715.737061 422.181549,703.890564 
	C481.400635,703.890564 540.745239,703.890564 600.660767,704.188965 
	C601.433655,704.739502 601.689880,704.910400 602.000366,705.000000 
z"/>
<path fill="#0E3E3F" opacity="1.000000" stroke="none" 
	d="
M652.988647,704.031738 
	C660.794861,703.969360 668.601135,703.855835 676.407349,703.853333 
	C717.631653,703.839783 758.856018,703.854309 800.546509,704.329956 
	C802.607178,706.193604 804.291321,707.498840 805.765015,709.009399 
	C806.781738,710.051575 808.155884,711.327515 808.253662,712.585754 
	C808.754150,719.025024 808.483398,725.544250 809.293457,731.932678 
	C809.880066,736.558167 808.305359,738.016968 804.055176,738.015015 
	C747.584473,737.988770 691.113647,737.961731 634.643188,738.076111 
	C630.785522,738.083923 629.815735,736.785583 629.931091,733.166077 
	C630.169800,725.677551 630.298279,718.160339 629.898254,710.685730 
	C629.645020,705.954102 631.283203,704.749939 635.797913,704.883362 
	C641.514771,705.052307 647.257202,704.355347 652.988647,704.031738 
z"/>
<path fill="#093A3C" opacity="1.000000" stroke="none" 
	d="
M423.884888,526.672363 
	C427.478363,526.444092 425.925415,529.415466 425.931366,531.153931 
	C426.030884,560.309570 426.002563,589.465759 426.002350,618.621765 
	C426.002258,635.282349 426.108948,651.944214 425.922455,668.602722 
	C425.878357,672.542114 426.690186,674.139526 431.079163,674.097107 
	C453.402252,673.881165 475.729401,673.899841 498.053009,674.087280 
	C502.084839,674.121094 503.075836,672.850830 503.073029,668.971436 
	C502.982574,544.017029 502.976837,419.062561 503.089905,294.108215 
	C503.093842,289.767334 501.608887,288.893555 497.632935,288.923553 
	C475.475586,289.090759 453.315369,289.113770 431.158661,288.909698 
	C426.885193,288.870331 425.911774,290.277222 425.921936,294.319244 
	C426.045959,343.634277 426.015015,392.949799 425.953491,442.265076 
	C425.951202,444.109833 425.229034,445.953644 424.456421,447.914154 
	C424.276886,446.745850 424.664062,445.461273 424.663544,444.176788 
	C424.644226,393.859741 424.589569,343.542694 424.539825,293.225647 
	C424.538208,291.581085 424.539673,289.936523 424.539673,287.850647 
	C450.688385,287.850647 477.060760,287.850647 503.841064,287.850647 
	C503.841064,416.920532 503.841064,546.068054 503.841064,675.374023 
	C477.567017,675.374023 451.445343,675.374023 424.571228,675.374023 
	C424.571228,673.341064 424.572845,671.415405 424.570984,669.489746 
	C424.527466,624.171021 424.488037,578.852234 424.425842,533.533508 
	C424.422882,531.381287 424.216949,529.229309 423.884888,526.672363 
z"/>
<path fill="#093A3C" opacity="1.000000" stroke="none" 
	d="
M214.007004,289.015564 
	C214.004517,415.326050 214.027710,541.636536 213.899261,667.946899 
	C213.894440,672.672363 215.023468,674.177124 219.923569,674.112122 
	C240.416245,673.840332 260.917389,674.165405 281.408051,673.825439 
	C284.666565,673.771423 287.887207,671.433960 291.462830,670.078735 
	C291.800323,671.648865 291.800323,673.292419 291.800323,675.267822 
	C265.322479,675.267822 238.932327,675.267822 212.263382,675.267822 
	C212.174332,674.012512 212.025650,672.896606 212.025848,671.780640 
	C212.047043,544.638489 212.079163,417.496307 212.115463,290.354156 
	C212.115646,289.689941 212.183365,289.025696 212.718002,288.384583 
	C213.479965,288.610321 213.743484,288.812958 214.007004,289.015564 
z"/>
<path fill="#204B4F" opacity="1.000000" stroke="none" 
	d="
M662.551758,599.131165 
	C661.159180,599.788635 659.302490,600.886597 657.443115,600.891113 
	C617.500977,600.989441 577.558594,600.965332 537.616211,600.964905 
	C535.658752,600.964905 533.701355,600.964966 531.225342,600.964966 
	C531.503723,604.577209 531.974243,607.625854 531.934692,610.667908 
	C531.685364,629.856995 531.441040,649.047913 530.909912,668.230286 
	C530.785461,672.726196 531.948303,674.168335 536.664734,674.139526 
	C570.448059,673.933167 604.233215,674.022522 638.017822,674.048157 
	C639.822937,674.049500 641.627869,674.324341 643.728210,674.770020 
	C640.042664,675.249817 636.061951,675.585449 632.080933,675.588989 
	C599.601624,675.618103 567.122314,675.588074 534.643005,675.561890 
	C533.188293,675.560669 531.733643,675.422791 530.085327,675.338562 
	C530.085327,649.988647 530.085327,624.912048 530.085327,599.062439 
	C574.234375,599.062439 618.160400,599.062439 662.551758,599.131165 
z"/>
<path fill="#093A3C" opacity="1.000000" stroke="none" 
	d="
M652.598511,703.936646 
	C647.257202,704.355347 641.514771,705.052307 635.797913,704.883362 
	C631.283203,704.749939 629.645020,705.954102 629.898254,710.685730 
	C630.298279,718.160339 630.169800,725.677551 629.931091,733.166077 
	C629.815735,736.785583 630.785522,738.083923 634.643188,738.076111 
	C691.113647,737.961731 747.584473,737.988770 804.055176,738.015015 
	C808.305359,738.016968 809.880066,736.558167 809.293457,731.932678 
	C808.483398,725.544250 808.754150,719.025024 808.253662,712.585754 
	C808.155884,711.327515 806.781738,710.051575 805.765015,709.009399 
	C804.291321,707.498840 802.607178,706.193604 801.006958,704.424805 
	C804.646851,704.048828 808.292542,704.048828 812.318115,704.048828 
	C812.318115,715.655396 812.318115,727.234558 812.318115,739.184631 
	C751.394531,739.184631 690.332886,739.184631 628.961792,739.184631 
	C628.961792,727.539368 628.961792,715.956177 628.961792,703.841614 
	C636.653320,703.841614 644.430847,703.841614 652.598511,703.936646 
z"/>
<path fill="#093A3C" opacity="1.000000" stroke="none" 
	d="
M301.562805,447.971802 
	C301.179810,449.416962 300.361511,450.774078 298.973175,453.076508 
	C309.712128,453.737671 320.090454,454.358521 330.466125,455.020477 
	C340.828796,455.681580 351.188812,456.383789 362.456177,457.127838 
	C359.706329,460.949646 357.406799,461.323059 354.099762,460.204315 
	C352.028717,459.503662 349.490051,460.106598 347.169983,460.258759 
	C346.214203,460.321442 345.147949,461.166504 344.359650,460.921844 
	C338.623932,459.142059 333.533875,462.521973 328.089661,462.754578 
	C324.700531,462.899414 321.290619,462.457336 317.890015,462.457764 
	C313.379211,462.458344 308.841400,462.974731 304.366669,462.620026 
	C301.107788,462.361725 297.573761,461.666870 294.811646,460.054474 
	C291.484985,458.112396 290.309906,454.943085 294.444672,452.481689 
	C293.321625,450.623383 292.372131,449.052307 291.639648,447.268494 
	C294.946960,447.331757 298.037231,447.607758 301.562805,447.971802 
z"/>
<path fill="#023334" opacity="1.000000" stroke="none" 
	d="
M422.183594,738.400757 
	C481.803314,738.006042 541.425110,738.001770 601.514343,737.999329 
	C600.511536,738.500000 599.041809,739.433105 597.570923,739.434937 
	C549.676819,739.494568 501.782623,739.464539 453.888458,739.448059 
	C443.910522,739.444580 433.932556,739.453125 423.954803,739.411499 
	C423.364258,739.409058 422.775360,739.007202 422.183594,738.400757 
z"/>
<path fill="#023334" opacity="1.000000" stroke="none" 
	d="
M606.788696,469.567505 
	C581.563171,469.983490 556.388733,469.983551 530.766235,469.982361 
	C530.996338,469.378967 531.672424,468.253113 532.353088,468.250336 
	C556.697815,468.152161 581.043030,468.153137 605.388062,468.192810 
	C605.872498,468.193604 606.355835,468.818085 606.788696,469.567505 
z"/>
<path fill="#023334" opacity="1.000000" stroke="none" 
	d="
M214.474945,289.010742 
	C213.743484,288.812958 213.479965,288.610321 213.104614,288.181183 
	C223.566040,287.777496 234.138840,287.554352 244.712799,287.439148 
	C251.833069,287.361572 258.955017,287.436523 266.526672,287.572632 
	C265.346588,288.135864 263.718231,288.936676 262.085114,288.946625 
	C246.371490,289.042511 230.657074,289.005157 214.474945,289.010742 
z"/>
<path fill="#023334" opacity="1.000000" stroke="none" 
	d="
M530.605957,571.427490 
	C553.635742,570.974060 576.834656,570.976440 600.033447,571.015808 
	C601.832520,571.018860 603.631165,571.281799 605.719849,571.727417 
	C580.931458,571.984924 555.853210,571.938843 530.605957,571.427490 
z"/>
<path fill="#093A3C" opacity="1.000000" stroke="none" 
	d="
M423.550354,447.995819 
	C423.708099,448.923798 423.205231,450.597900 423.115448,450.576019 
	C416.539734,448.974335 409.442780,453.025604 403.070587,448.428802 
	C409.695984,448.035706 416.389282,447.993042 423.550354,447.995819 
z"/>
<path fill="#204B4F" opacity="1.000000" stroke="none" 
	d="
M650.355713,675.058044 
	C655.149353,674.452576 660.284119,673.951843 665.714233,673.739380 
	C660.905396,674.406067 655.801147,674.784424 650.355713,675.058044 
z"/>
<path fill="#023334" opacity="1.000000" stroke="none" 
	d="
M290.989777,288.990295 
	C285.786041,288.775696 280.582336,288.561066 275.203888,288.022980 
	C280.048248,287.615387 285.067352,287.531281 290.528046,287.808655 
	C290.989410,288.443176 290.996124,288.716583 290.989777,288.990295 
z"/>
<path fill="#204B4F" opacity="1.000000" stroke="none" 
	d="
M677.602783,597.235840 
	C674.701416,600.514832 670.670349,600.211365 666.283081,599.272705 
	C669.726807,598.400330 673.455139,597.804993 677.602783,597.235840 
z"/>
<path fill="#093A3C" opacity="1.000000" stroke="none" 
	d="
M291.901367,536.552490 
	C288.585022,534.316345 289.778503,531.268372 291.447968,528.108337 
	C291.873840,530.706787 291.931641,533.408386 291.901367,536.552490 
z"/>
<path fill="#204B4F" opacity="1.000000" stroke="none" 
	d="
M669.386719,673.901978 
	C671.148438,673.379639 673.311401,672.927185 675.739746,672.744751 
	C673.932739,673.333862 671.860413,673.652832 669.386719,673.901978 
z"/>
<path fill="#204B4F" opacity="1.000000" stroke="none" 
	d="
M679.318970,672.766174 
	C680.178406,672.312500 681.380859,671.919861 682.797180,671.779785 
	C681.894714,672.297241 680.778320,672.562256 679.318970,672.766174 
z"/>
<path fill="#204B4F" opacity="1.000000" stroke="none" 
	d="
M684.351624,671.980347 
	C685.230286,671.486450 686.458862,671.053467 687.870850,670.887329 
	C686.936707,671.449829 685.819092,671.745544 684.351624,671.980347 
z"/>
<path fill="#093A3C" opacity="1.000000" stroke="none" 
	d="
M317.669128,447.972900 
	C317.680359,448.562988 317.362671,449.066315 317.044983,449.569641 
	C316.724060,449.260284 316.403137,448.950958 316.042114,448.350525 
	C316.448120,448.001678 316.894165,447.943939 317.669128,447.972900 
z"/>
<path fill="#093A3C" opacity="1.000000" stroke="none" 
	d="
M291.210083,288.992706 
	C290.996124,288.716583 290.989410,288.443176 290.967102,287.964783 
	C291.315582,287.996521 291.666656,288.233582 291.944336,288.733765 
	C291.870972,288.996887 291.430359,288.995117 291.210083,288.992706 
z"/>
<path fill="#023334" opacity="1.000000" stroke="none" 
	d="
M423.161865,526.317871 
	C423.225037,526.114136 423.492432,526.018799 423.790009,526.131104 
	C423.820190,526.338806 423.366119,526.426270 423.161865,526.317871 
z"/>
<path fill="#023334" opacity="1.000000" stroke="none" 
	d="
M602.029419,704.700562 
	C601.689880,704.910400 601.433655,704.739502 601.122437,704.280396 
	C601.361755,704.182678 601.710144,704.291931 602.029419,704.700562 
z"/>
<path fill="#093A3C" opacity="1.000000" stroke="none" 
	d="
M369.253754,457.025208 
	C370.532410,457.119202 371.453339,457.228363 372.374237,457.337524 
	C372.448090,457.811371 372.521973,458.285248 372.595825,458.759094 
	C371.081421,458.938904 369.566986,459.118683 368.052582,459.298492 
	C368.333710,458.545776 368.614838,457.793091 369.253754,457.025208 
z"/>
</svg>