<svg version="1.1" id="Layer_1" xmlns="http://www.w3.org/2000/svg" xmlns:xlink="http://www.w3.org/1999/xlink" x="0px" y="0px"
	 width="100%" viewBox="0 0 1024 1024" enable-background="new 0 0 1024 1024" xml:space="preserve">
<path fill="#FFFFFF" opacity="1.000000" stroke="none" 
	d="
M412.988037,607.282166 
	C408.659088,607.276245 404.813660,607.062561 401.000031,607.320190 
	C396.734253,607.608337 395.307556,605.713135 395.669586,601.723938 
	C395.848511,599.752380 395.700653,597.751099 395.700653,594.653625 
	C379.338715,609.243774 360.688934,613.765198 340.133789,611.252625 
	C319.597748,608.742493 302.814697,599.404480 290.466278,582.737793 
	C269.450134,554.372314 271.254425,511.294189 293.395813,485.727356 
	C315.774139,459.886932 362.398132,451.986023 394.202820,476.598419 
	C395.374451,474.750458 394.784576,472.715759 394.787781,470.818817 
	C394.831360,444.998505 394.912415,419.177185 394.701813,393.358429 
	C394.661896,388.463470 395.897400,386.361298 401.120880,386.712769 
	C407.091095,387.114441 413.108734,386.796295 419.105621,386.821045 
	C425.771332,386.848602 425.947357,387.028351 425.954987,393.982147 
	C425.984467,420.801971 426.017395,447.621765 426.019073,474.441589 
	C426.021637,515.587708 425.993317,556.733765 425.991821,597.879883 
	C425.991394,608.881226 426.020508,607.132263 416.484161,607.281555 
	C415.484863,607.297180 414.485077,607.282837 412.988037,607.282166 
M335.570770,578.999084 
	C364.283081,589.682129 402.679626,570.301025 395.818146,529.441895 
	C393.110718,513.319702 384.420776,501.642334 369.349731,495.720215 
	C353.531525,489.504517 338.014221,490.710938 323.833374,501.062531 
	C299.595551,518.755432 300.464874,565.528503 335.570770,578.999084 
z"/>
<path fill="#FFFFFF" opacity="1.000000" stroke="none" 
	d="
M558.152161,464.592346 
	C566.636169,466.985138 573.951904,470.836395 580.532349,476.134430 
	C582.392029,474.110596 581.671265,472.021362 581.675171,470.147797 
	C581.728394,444.483459 581.837524,418.817841 581.599915,393.155609 
	C581.552490,388.027374 583.193604,386.398773 588.183533,386.679779 
	C594.662964,387.044678 601.184082,386.968292 607.674438,386.731323 
	C611.689148,386.584808 612.977661,388.321777 612.926941,392.038971 
	C612.831421,399.036713 612.950745,406.037201 612.948975,413.036530 
	C612.936646,460.698975 612.953003,508.361481 612.876953,556.023804 
	C612.852539,571.350464 612.482727,586.676697 612.483398,602.003113 
	C612.483521,605.839355 611.272644,607.424377 607.313660,607.281372 
	C601.155579,607.058899 594.970093,606.971863 588.821716,607.302612 
	C583.957092,607.564392 582.150208,605.700378 582.610901,600.958801 
	C582.778564,599.233093 583.127808,597.354980 582.049072,595.255310 
	C573.382019,603.062378 563.496338,608.327637 552.169922,610.479919 
	C510.299408,618.436340 468.854279,593.269897 463.660034,546.470703 
	C461.201935,524.323486 465.554504,503.871765 480.411041,486.730286 
	C497.560516,466.943115 519.914368,459.950562 545.506653,462.196564 
	C549.625549,462.558075 553.674805,463.713257 558.152161,464.592346 
M561.461975,498.026520 
	C547.441589,490.983551 533.080750,489.793884 518.674133,496.428009 
	C500.360291,504.861389 491.790527,523.217407 495.175568,545.678101 
	C497.880798,563.628052 510.618896,576.861694 529.237488,581.065247 
	C546.272766,584.911316 566.385803,577.375671 575.700500,563.657227 
	C590.285217,542.177307 584.078735,512.387329 561.461975,498.026520 
z"/>
<path fill="#FFFFFF" opacity="1.000000" stroke="none" 
	d="
M219.663086,533.326904 
	C219.191727,529.400696 218.943222,525.895996 218.233185,522.487549 
	C213.416626,499.366058 195.614471,490.445892 174.899277,492.713257 
	C151.394516,495.285980 139.623276,509.708160 139.383026,535.316406 
	C139.176727,557.304565 139.190964,579.297363 139.420532,601.284851 
	C139.471603,606.177185 137.898819,607.658081 133.146576,607.418518 
	C126.167534,607.066711 119.156258,607.248047 112.161415,607.364380 
	C108.987839,607.417114 107.565262,606.188538 107.698662,602.964172 
	C107.822495,599.971069 107.701172,596.968140 107.701134,593.969543 
	C107.700302,527.166687 107.700027,460.363770 107.703934,393.560883 
	C107.704330,386.804840 107.716988,386.792938 114.226799,386.780121 
	C120.723801,386.767334 127.232010,387.014771 133.714050,386.704285 
	C138.219421,386.488434 139.391708,388.294708 139.370148,392.534943 
	C139.234604,419.188721 139.309891,445.843567 139.315384,472.498077 
	C139.315720,474.132568 139.315430,475.767090 139.315430,477.343719 
	C141.373917,477.868713 142.025024,476.376160 142.991257,475.635773 
	C166.334656,457.749237 204.222900,456.807373 226.849182,473.655243 
	C241.621536,484.654877 248.482880,500.162964 250.141693,517.827515 
	C252.808624,546.227173 250.676987,574.750122 251.185257,603.214355 
	C251.238220,606.180359 249.932007,607.384766 246.974915,607.347778 
	C239.646118,607.255981 232.308502,607.131042 224.988007,607.395508 
	C220.677902,607.551208 219.645584,605.695740 219.664047,601.761414 
	C219.770309,579.105774 219.689682,556.449280 219.663086,533.326904 
z"/>
<path fill="#FFFFFF" opacity="1.000000" stroke="none" 
	d="
M765.183472,483.835205 
	C780.597107,501.713837 786.010437,522.470154 785.282043,545.267212 
	C785.160706,549.063477 783.756592,550.447937 779.865234,550.453369 
	C748.055847,550.497620 716.246582,550.701660 684.437622,550.901428 
	C680.013000,550.929199 675.494873,549.535706 670.519287,551.855896 
	C671.839783,558.823120 675.177368,564.785461 679.930054,569.952820 
	C694.291687,585.567505 721.981567,588.113281 738.889771,575.212830 
	C741.792603,572.998047 743.894287,572.886230 746.872253,574.607544 
	C754.190796,578.837769 761.649780,582.824951 769.580872,587.201599 
	C766.756287,591.721069 762.880615,594.372192 759.275940,597.084595 
	C722.196167,624.985596 646.067749,614.983887 637.183411,546.271606 
	C631.510437,502.395691 660.770142,467.028290 702.055725,462.545624 
	C726.268066,459.916687 747.601501,465.736053 765.183472,483.835205 
M690.492371,494.957458 
	C679.781738,500.969269 672.922119,509.744720 670.418152,522.419312 
	C697.713501,522.419312 724.399353,522.419312 751.278564,522.419312 
	C751.535828,518.709900 750.366028,515.796265 749.082153,512.945984 
	C739.477600,491.623352 714.160278,483.620880 690.492371,494.957458 
z"/>
<path fill="#FFFFFF" opacity="1.000000" stroke="none" 
	d="
M682.649353,311.999939 
	C682.655090,284.668488 682.764709,257.836273 682.571167,231.006302 
	C682.536255,226.170715 684.091492,224.730133 688.853210,224.739243 
	C754.015015,224.863907 819.177185,224.864975 884.339050,224.745941 
	C888.950439,224.737518 890.323914,226.217133 890.314514,230.776505 
	C890.189758,291.271942 890.183044,351.767853 890.315063,412.263275 
	C890.325684,417.116272 888.721802,418.465118 883.985168,418.455780 
	C818.823364,418.326904 753.661255,418.330994 688.499451,418.456390 
	C683.921631,418.465210 682.520752,417.077698 682.544373,412.492279 
	C682.716248,379.162201 682.644287,345.830872 682.649353,311.999939 
M776.499939,408.619171 
	C808.817749,408.463593 841.136475,408.136566 873.452332,408.324768 
	C878.710144,408.355377 879.820190,407.077545 879.795471,402.105774 
	C879.606567,364.118774 879.691772,326.130402 879.693970,288.142456 
	C879.694397,281.205414 879.699219,281.198883 872.948303,281.197571 
	C814.966736,281.186340 756.985107,281.176544 699.003540,281.169556 
	C692.340820,281.168762 692.316895,281.178009 692.314941,287.732452 
	C692.304260,324.054230 692.310608,360.376007 692.301086,396.697784 
	C692.298035,408.275848 692.283997,408.275757 704.038940,408.140656 
	C704.372070,408.136841 704.705872,408.130280 705.038513,408.143921 
	C728.520264,409.104095 752.013489,408.352448 776.499939,408.619171 
M879.695190,267.065460 
	C879.692993,258.240509 879.517151,249.410660 879.765076,240.592728 
	C879.881348,236.457291 878.497864,235.085556 874.345154,235.156357 
	C861.194641,235.380539 848.038269,235.273941 834.884155,235.268997 
	C789.427429,235.251938 743.970642,235.256897 698.514099,235.143570 
	C694.409424,235.133347 691.921082,235.623779 692.181335,240.744186 
	C692.578125,248.549896 692.277344,256.390656 692.288208,264.216522 
	C692.297180,270.678040 692.307068,270.695953 698.977783,270.696716 
	C755.257568,270.703186 811.537354,270.702484 867.817139,270.704529 
	C870.481262,270.704620 873.145447,270.703369 875.809509,270.716431 
	C877.769409,270.726074 879.562378,270.525391 879.695190,267.065460 
z"/>
<path fill="#FFFFFF" opacity="1.000000" stroke="none" 
	d="
M750.206787,674.395142 
	C750.334839,710.176880 750.378113,745.502930 750.427490,780.828918 
	C750.436890,787.571716 750.447937,787.579590 756.946533,787.579529 
	C790.440125,787.579163 823.934326,787.691650 857.427002,787.513672 
	C870.915161,787.441956 884.399597,786.665955 897.888611,787.490112 
	C906.608826,788.022888 906.609070,788.018677 908.527771,778.666870 
	C913.211548,782.388977 917.579895,785.789368 921.848022,789.311157 
	C922.718201,790.029236 922.488892,791.224670 921.640808,791.969055 
	C917.565125,795.546387 913.444763,799.072754 909.204163,802.734741 
	C906.213989,796.175415 906.213989,796.186523 898.949219,796.186768 
	C848.958740,796.188538 798.968323,796.186707 748.977844,796.182068 
	C741.711792,796.181335 741.697388,796.171570 741.691711,789.099243 
	C741.664673,755.272339 741.650146,721.445496 741.621338,687.618591 
	C741.615662,680.923096 741.595642,680.921082 735.002014,680.942261 
	C724.170898,680.977051 713.339844,681.010620 702.508728,681.052673 
	C696.433838,681.076233 696.208618,681.432739 696.529785,687.710266 
	C697.466553,706.018555 696.348328,724.335632 696.694702,742.643372 
	C696.795837,747.990417 694.662415,749.271851 689.627869,749.258301 
	C638.971313,749.121704 588.314148,749.202087 537.657166,749.223999 
	C530.249634,749.227173 530.239441,749.233521 530.230408,756.533325 
	C530.216858,767.531250 530.056335,778.532654 530.294312,789.525330 
	C530.390625,793.969604 528.722412,795.276428 524.449402,795.251282 
	C499.788300,795.106567 475.125610,795.109253 450.464325,795.233704 
	C446.373718,795.254395 444.864380,793.855530 444.870300,789.737366 
	C444.925842,751.244934 444.906830,712.752014 444.735779,674.260071 
	C444.715881,669.776306 446.383392,668.596863 450.616333,668.622253 
	C475.277405,668.770020 499.940430,668.780029 524.601257,668.612549 
	C528.970642,668.582825 530.372803,669.961670 530.330383,674.345215 
	C530.138611,694.172913 530.247070,714.003479 530.247437,733.833008 
	C530.247498,735.802856 530.247498,737.772644 530.247498,739.501892 
	C532.707397,741.031128 534.931152,740.578979 537.035583,740.574036 
	C585.854431,740.460266 634.673218,740.252319 683.492004,740.241943 
	C687.529663,740.241089 687.670288,738.341553 687.659119,735.344849 
	C687.587891,716.182068 687.744507,697.017273 687.499939,677.857300 
	C687.445496,673.592041 688.781677,672.512390 692.852539,672.519470 
	C709.843628,672.548950 726.834961,672.237671 743.826782,672.134521 
	C746.031616,672.121155 748.596802,671.369019 750.206787,674.395142 
M475.500122,786.688904 
	C488.831116,786.682861 502.165466,786.504150 515.491333,786.763062 
	C520.245667,786.855408 521.798950,785.428162 521.743469,780.552734 
	C521.485718,757.892822 521.612427,735.228699 521.559998,712.566223 
	C521.536865,702.571289 521.321533,692.576050 521.386658,682.582153 
	C521.411133,678.821228 519.813049,677.859192 516.253967,677.895752 
	C497.259155,678.091064 478.261780,678.144226 459.266144,678.057556 
	C455.339355,678.039612 453.997314,679.462219 454.073303,683.324036 
	C454.263397,692.985413 454.154755,702.652649 454.160858,712.317566 
	C454.175385,735.313416 454.263824,758.309692 454.127747,781.304688 
	C454.103699,785.365906 455.276642,787.029907 459.507294,786.770569 
	C464.487885,786.465271 469.501160,786.693054 475.500122,786.688904 
z"/>
<path fill="#FFFFFF" opacity="1.000000" stroke="none" 
	d="
M843.507202,526.555298 
	C847.469604,536.939636 851.298035,546.961365 855.181641,557.127563 
	C857.338562,555.917358 857.437683,554.302673 857.955505,552.965698 
	C868.720703,525.171814 879.479736,497.375519 890.182251,469.557526 
	C891.132996,467.086395 892.030151,464.992676 895.244019,465.019714 
	C904.240356,465.095398 913.237793,465.022095 922.234619,465.062134 
	C923.005066,465.065552 923.773682,465.473755 924.355225,465.640137 
	C925.324951,467.331879 924.369446,468.475647 923.857239,469.635223 
	C904.411804,513.661743 885.769897,558.029236 867.638855,602.610107 
	C866.110779,606.367249 864.110718,607.483704 860.224060,607.459167 
	C845.212891,607.364502 845.222107,607.487183 839.622192,593.421875 
	C823.419128,552.724426 806.186401,512.456848 788.996826,472.171204 
	C788.220215,470.351166 787.544556,468.488037 786.934937,466.933228 
	C787.648193,465.179779 788.930054,465.130737 790.034790,465.122925 
	C799.031006,465.059387 808.028259,465.125031 817.024048,465.034851 
	C820.574158,464.999237 821.309570,467.586243 822.254333,470.096161 
	C829.293213,488.795258 836.333374,507.493866 843.507202,526.555298 
z"/>
<path fill="#FFFFFF" opacity="1.000000" stroke="none" 
	d="
M316.999878,242.404236 
	C249.684586,242.373001 182.869278,242.364792 116.054169,242.248795 
	C112.446007,242.242523 106.841171,244.028244 106.950722,237.742035 
	C107.055862,231.708801 112.710838,233.207687 116.279770,233.186707 
	C148.436676,232.997803 180.595001,233.031616 212.752899,233.029419 
	C289.898682,233.024139 367.044464,233.035187 444.190247,233.038315 
	C451.182678,233.038589 451.239014,233.067352 451.242615,239.884491 
	C451.255585,264.544495 451.354279,289.205261 451.163788,313.863770 
	C451.128357,318.452301 452.503723,319.820038 457.113617,319.789062 
	C485.104736,319.600952 513.097839,319.706573 541.090271,319.714661 
	C542.090027,319.714935 543.089722,319.718872 544.089478,319.724945 
	C547.236023,319.744019 550.580078,319.907990 550.441833,324.147461 
	C550.320251,327.877960 547.339905,328.332611 544.267578,328.330414 
	C511.942993,328.307281 479.618042,328.229431 447.294281,328.393341 
	C442.410583,328.418091 441.993256,325.994507 442.000183,322.189423 
	C442.044464,297.862976 441.976135,273.536346 441.922607,249.209824 
	C441.907562,242.366425 441.873383,242.351807 434.967072,242.354034 
	C395.811340,242.366669 356.655609,242.386902 316.999878,242.404236 
z"/>
<path fill="#FFFFFF" opacity="1.000000" stroke="none" 
	d="
M171.000061,713.675171 
	C211.811768,713.670837 252.123459,713.665283 292.435150,713.664612 
	C299.242584,713.664490 299.270111,713.674316 299.274536,720.611877 
	C299.291412,747.097656 299.192352,773.584045 299.382721,800.068542 
	C299.417084,804.846497 297.923340,806.379333 293.118530,806.353516 
	C264.634827,806.200317 236.149673,806.325928 207.664993,806.352112 
	C206.499710,806.353149 205.329834,806.351929 204.169998,806.256226 
	C201.900314,806.068665 200.319916,804.839172 200.094055,802.583801 
	C199.837570,800.022583 201.489777,798.529480 203.823120,798.039978 
	C205.429443,797.703003 207.134308,797.770691 208.795242,797.769043 
	C233.615219,797.744202 258.435211,797.741272 283.255219,797.725037 
	C289.997589,797.720642 290.037933,797.708130 290.027527,791.197754 
	C289.994049,770.209229 289.786102,749.219482 289.978546,728.233215 
	C290.024384,723.233887 288.186005,722.160095 283.573700,722.171509 
	C227.604065,722.309937 171.634003,722.288025 115.664108,722.237366 
	C112.255821,722.234314 107.234589,723.629578 107.167953,718.106323 
	C107.102303,712.664368 112.046455,713.735779 115.529701,713.721313 
	C133.852905,713.645081 152.176559,713.679504 171.000061,713.675171 
z"/>
<path fill="#FFFFFF" opacity="1.000000" stroke="none" 
	d="
M263.213928,300.000122 
	C263.220886,326.158142 263.221832,351.816254 263.242706,377.474335 
	C263.244934,380.209625 263.176025,382.396423 266.203552,384.573151 
	C269.394440,386.867371 269.105652,391.726959 269.006073,395.711548 
	C268.970184,397.147583 267.409149,397.224548 266.248871,397.234680 
	C261.751038,397.274078 257.252686,397.262146 252.754578,397.253265 
	C250.305313,397.248444 249.410797,395.731140 249.895538,393.640717 
	C250.672928,390.288269 250.366318,386.601471 252.798630,383.714569 
	C254.362854,381.858032 253.806519,379.574036 253.807861,377.463654 
	C253.828918,344.141510 253.803375,310.819336 253.789734,277.497162 
	C253.786545,269.716644 253.788605,269.689514 261.325348,269.686554 
	C311.808472,269.666687 362.291565,269.658722 412.774689,269.651306 
	C414.106934,269.651123 415.444275,269.636841 416.770294,269.741852 
	C419.160889,269.931091 420.335999,271.375854 420.435944,273.683380 
	C420.536285,275.999512 419.374878,277.595123 417.131897,278.008728 
	C415.351257,278.337067 413.485840,278.267914 411.657990,278.268799 
	C364.173859,278.292084 316.689453,278.375702 269.205994,278.203613 
	C264.210388,278.185516 262.824585,279.838318 263.143616,284.510651 
	C263.483276,289.485565 263.215942,294.501923 263.213928,300.000122 
z"/>
<path fill="#FFFFFF" opacity="1.000000" stroke="none" 
	d="
M260.992004,756.992676 
	C265.321350,757.022949 269.156738,756.952148 272.981964,757.116882 
	C275.571686,757.228577 278.172668,757.767883 278.226196,761.163208 
	C278.281281,764.659302 275.809387,765.580688 272.925720,765.854858 
	C271.601990,765.980774 270.264069,765.993164 268.932495,765.995422 
	C217.458145,766.082458 165.983795,766.164368 114.509430,766.232056 
	C113.183319,766.233765 111.810539,766.256348 110.540810,765.941467 
	C108.174957,765.354736 106.751419,763.749390 106.987122,761.232239 
	C107.206490,758.889587 108.794731,757.787903 111.088486,757.694275 
	C116.245377,757.483704 121.402588,757.122009 126.560181,757.113098 
	C171.204636,757.036072 215.849213,757.023560 260.992004,756.992676 
z"/>
<path fill="#FFFFFF" opacity="1.000000" stroke="none" 
	d="
M473.005707,278.630157 
	C476.409790,278.349396 479.392395,277.997345 482.375793,277.990784 
	C516.323242,277.916199 550.270813,277.890533 584.218384,277.870819 
	C585.707275,277.869965 587.256165,277.826111 588.671204,278.201508 
	C590.788696,278.763306 592.097717,280.316895 592.058350,282.582916 
	C592.022705,284.631927 590.807190,286.071503 588.856079,286.555115 
	C587.265076,286.949463 585.575317,287.092316 583.928894,287.094940 
	C548.317322,287.151550 512.705688,287.174835 477.094025,287.196930 
	C474.238281,287.198700 471.187622,287.373566 470.044037,283.906891 
	C469.253937,281.511719 470.161713,279.677429 473.005707,278.630157 
z"/>
<path fill="#FFFFFF" opacity="1.000000" stroke="none" 
	d="
M316.951538,774.202209 
	C316.928772,758.381409 316.928772,742.975159 316.928772,726.212341 
	C333.346924,734.243042 348.603088,741.926392 363.310547,750.096436 
	C363.362030,752.152893 362.156372,752.583069 361.184906,753.147339 
	C348.108887,760.742981 335.031738,768.336853 321.927368,775.883301 
	C319.981628,777.003784 317.613556,778.967407 316.951538,774.202209 
M331.543976,759.980347 
	C336.166473,757.326477 340.788940,754.672607 346.470795,751.410583 
	C338.955322,747.556519 332.756897,744.377869 325.864929,740.843567 
	C325.864929,748.637024 325.864929,755.381287 325.864929,762.778992 
	C327.998260,761.756531 329.460022,761.055969 331.543976,759.980347 
z"/>
<path fill="#FFFFFF" opacity="1.000000" stroke="none" 
	d="
M801.996216,334.014893 
	C806.488647,334.039948 810.482300,334.051270 814.475708,334.093658 
	C817.112671,334.121613 818.338379,335.363861 818.311951,338.121216 
	C818.224365,347.273468 818.236694,356.427155 818.285034,365.579895 
	C818.299683,368.349670 817.034607,369.414032 814.338135,369.406677 
	C795.532776,369.355347 776.727112,369.332886 757.921753,369.383820 
	C754.750488,369.392395 753.939880,367.712433 753.945984,364.987457 
	C753.957642,359.828613 753.571289,354.645599 753.952576,349.517365 
	C754.341064,344.291504 752.254639,342.958649 747.324463,343.181427 
	C738.853699,343.564240 730.351624,343.191040 721.867859,343.374786 
	C718.075134,343.456909 716.496338,342.256531 716.596985,338.228088 
	C716.825745,329.080811 716.757019,319.921906 716.598877,310.771362 
	C716.538452,307.269073 717.518921,305.612183 721.362854,305.659668 
	C733.675964,305.811829 745.993774,305.798950 758.306763,305.632690 
	C762.096619,305.581543 763.248352,307.184540 763.188782,310.700989 
	C763.059692,318.319183 763.149048,325.941071 763.149048,334.014374 
	C776.337708,334.014374 788.917480,334.014374 801.996216,334.014893 
M805.047607,343.237732 
	C795.078613,343.255707 785.109558,343.287903 775.140564,343.287994 
	C762.995361,343.288086 763.192566,343.277588 763.120300,355.485596 
	C763.093201,360.066589 764.892395,361.111176 769.033142,361.012115 
	C778.664673,360.781738 788.304993,360.916687 797.941772,360.912201 
	C810.101990,360.906525 811.838989,358.732300 809.333740,346.766235 
	C808.923706,344.807709 808.295410,343.237610 805.047607,343.237732 
M725.342407,323.536621 
	C725.341370,334.564423 725.341370,334.564423 736.451965,334.572601 
	C737.447449,334.573334 738.442993,334.573700 739.438477,334.575470 
	C754.592957,334.602112 754.497559,334.606415 753.819153,319.405914 
	C753.660522,315.851562 752.177246,314.810547 748.917297,314.905212 
	C743.611877,315.059326 738.299805,315.006348 732.990540,314.999695 
	C725.380798,314.990204 725.380798,314.974457 725.342407,323.536621 
z"/>
<path fill="#FFFFFF" opacity="1.000000" stroke="none" 
	d="
M739.715576,257.918579 
	C736.028076,259.549561 732.892761,259.541992 730.371338,256.567749 
	C728.497803,254.357788 728.195862,251.761520 729.374634,249.145294 
	C730.712158,246.176544 733.095581,244.598709 736.404236,244.580627 
	C739.592590,244.563202 741.879089,246.201691 742.870728,249.054657 
	C744.055237,252.462479 743.311157,255.580185 739.715576,257.918579 
z"/>
<path fill="#FFFFFF" opacity="1.000000" stroke="none" 
	d="
M718.155151,252.850708 
	C717.452271,255.957062 716.243286,258.324554 713.328308,259.040955 
	C709.407593,260.004547 706.023254,259.189850 704.207153,255.169067 
	C702.622620,251.660690 704.207886,247.652267 707.683838,245.936401 
	C711.436401,244.084045 715.377014,245.337463 717.340637,249.145050 
	C717.849060,250.130966 717.922424,251.341248 718.155151,252.850708 
z"/>
</svg>