<svg version="1.1" id="Layer_1" xmlns="http://www.w3.org/2000/svg" xmlns:xlink="http://www.w3.org/1999/xlink" x="0px" y="0px"
	 width="100%" viewBox="0 0 1024 1024" enable-background="new 0 0 1024 1024" xml:space="preserve">
<path fill="#FCFBFC" opacity="1.000000" stroke="none" 
	d="
M492.000000,1025.000000 
	C328.000000,1025.000000 164.500000,1025.000000 1.000000,1025.000000 
	C1.000000,683.666687 1.000000,342.333344 1.000000,1.000000 
	C342.333344,1.000000 683.666687,1.000000 1025.000000,1.000000 
	C1025.000000,342.333344 1025.000000,683.666687 1025.000000,1025.000000 
	C847.500000,1025.000000 670.000000,1025.000000 492.000000,1025.000000 
M535.591370,484.198181 
	C555.820435,496.237305 576.049500,508.276428 596.985596,520.736328 
	C596.985596,491.954895 596.985596,464.050171 596.985596,435.788971 
	C611.041443,435.788971 624.673706,435.428589 638.274658,435.926483 
	C646.208679,436.216919 654.240906,437.243713 661.971375,439.044647 
	C685.792114,444.593964 700.636353,459.495422 706.262512,483.395752 
	C709.836243,498.577209 709.699402,513.817078 706.455933,528.997437 
	C700.819336,555.377502 685.170715,572.687134 658.122437,576.038574 
	C638.235718,578.502625 617.927551,577.567261 597.806396,578.116272 
	C597.569824,578.122681 597.322083,577.722717 596.851685,577.314880 
	C596.851685,567.857910 596.733154,558.205078 596.921265,548.558228 
	C596.980469,545.522217 596.034302,543.742004 593.391724,542.190918 
	C573.575378,530.559753 553.847351,518.778015 534.076172,507.069763 
	C532.904175,506.375702 531.597839,505.908630 530.319458,505.320007 
	C530.319458,550.781982 530.319458,595.688416 530.319458,640.931519 
	C533.159729,640.931519 535.636169,640.931702 538.112610,640.931519 
	C569.275024,640.929138 600.440796,641.192017 631.598206,640.795959 
	C644.389343,640.633362 657.304565,639.946655 669.917236,637.946533 
	C709.943665,631.598999 741.453247,611.730469 758.873169,574.505981 
	C780.809021,527.631714 779.762146,480.034546 756.097168,433.881805 
	C740.844421,404.135071 715.321045,386.690002 682.414429,378.531067 
	C679.942078,378.044891 677.469666,377.558716 674.522827,376.892456 
	C674.354248,376.906647 674.185669,376.920807 673.472839,376.589050 
	C672.632263,376.496155 671.791687,376.403229 670.245911,376.069855 
	C669.506165,376.013458 668.766357,375.957062 667.381165,375.511658 
	C662.911133,375.064270 658.441162,374.616882 653.201416,373.951965 
	C652.139099,373.949768 651.076721,373.947540 649.241943,373.688995 
	C646.414368,373.542755 643.586975,373.271484 640.759277,373.269287 
	C605.436401,373.242126 570.113464,373.251465 534.790588,373.264496 
	C533.318481,373.265045 531.846375,373.392944 529.902466,373.483490 
	C529.902466,375.170532 529.902527,376.634857 529.902405,378.099213 
	C529.899170,410.589539 529.978149,443.080353 529.793457,475.569672 
	C529.769104,479.853302 530.850769,482.589569 535.591370,484.198181 
M482.875031,632.812317 
	C485.626495,635.081238 488.377960,637.350159 491.427887,639.865173 
	C491.427887,518.497253 491.427887,397.929993 491.427887,277.362701 
	C491.071167,277.170685 490.714417,276.978668 490.357697,276.786652 
	C489.217316,278.181610 488.076935,279.576538 486.325958,281.238342 
	C467.407654,298.296783 448.441772,315.303345 429.658752,332.509430 
	C428.109467,333.928680 427.037323,336.699005 427.028564,338.846771 
	C426.865540,378.811279 426.897644,418.776520 426.888763,458.741638 
	C426.888336,460.672607 426.888702,462.603607 426.888702,464.488495 
	C387.198975,464.488495 348.182556,464.488495 308.982941,464.488495 
	C308.982941,462.598328 308.982849,461.105133 308.982971,459.611908 
	C308.987610,400.663361 308.999847,341.714813 308.958588,282.766296 
	C308.957397,281.068878 308.388550,279.371857 307.334686,277.326569 
	C286.730103,277.326569 266.125519,277.326569 245.365387,277.326569 
	C245.365387,398.761597 245.365387,519.713501 245.365387,640.614624 
	C266.777802,640.614624 287.814240,640.614624 309.168488,640.614624 
	C309.168488,602.935425 309.168488,565.675781 309.168488,528.099548 
	C311.142883,528.099548 312.796051,528.099426 314.449219,528.099487 
	C346.093842,528.101685 377.738464,528.094543 409.383087,528.114624 
	C415.205505,528.118286 421.027832,528.232605 426.830292,529.195801 
	C426.904114,539.134705 426.977936,549.073608 426.831360,559.785095 
	C426.826508,567.041016 427.085327,574.310242 426.720459,581.547974 
	C426.491974,586.080017 427.847839,589.188293 432.388428,591.558838 
	C447.476227,603.740784 462.563995,615.922668 477.930664,628.669678 
	C478.608215,629.140991 479.285767,629.612244 480.239807,630.578064 
	C481.002838,631.124451 481.765869,631.670837 482.875031,632.812317 
M542.578552,732.292603 
	C543.960510,727.495239 545.342468,722.697876 546.724487,717.900513 
	C550.074402,725.945435 552.214844,733.809814 554.557739,741.613342 
	C555.075867,743.339172 556.125183,746.058777 557.249207,746.230469 
	C560.451782,746.719543 563.823242,746.179688 567.114990,745.892334 
	C567.454224,745.862671 567.820435,744.838928 567.978394,744.226013 
	C572.080872,728.304138 576.157593,712.375549 580.316528,696.144470 
	C576.824463,696.144470 573.722473,696.144470 570.425049,696.144470 
	C567.453430,707.731750 564.514343,719.192017 561.575317,730.652222 
	C561.223938,730.638245 560.872559,730.624207 560.521179,730.610229 
	C557.350403,719.060181 554.179565,707.510132 551.111633,696.334717 
	C545.747620,694.965515 543.182251,696.415466 542.136108,701.507935 
	C540.698792,708.504578 538.492920,715.343811 536.604614,722.247253 
	C535.796997,725.199829 534.959534,728.144287 534.135681,731.092407 
	C533.866272,731.038147 533.596924,730.983948 533.327576,730.929749 
	C530.492004,719.330139 527.656494,707.730591 524.820740,696.130371 
	C521.286011,696.130371 518.181152,696.130371 514.691040,696.130371 
	C519.034302,713.016724 523.293091,729.574707 527.530090,746.047913 
	C538.559204,747.426025 538.558899,747.425964 541.180481,737.407043 
	C541.559814,735.957275 541.943115,734.508545 542.578552,732.292603 
M317.219879,742.313171 
	C327.856689,748.965698 340.249664,748.776550 349.440857,741.821594 
	C357.624207,735.629211 361.265442,724.363403 358.407318,714.079956 
	C355.467224,703.501587 345.998047,695.820557 335.180634,695.239319 
	C323.371185,694.604858 313.279449,700.602661 309.106964,710.735535 
	C304.490906,721.945679 307.302734,733.604919 317.219879,742.313171 
M705.884033,726.981934 
	C714.492432,723.435547 717.808289,718.429321 716.966980,710.249146 
	C716.249695,703.274841 711.133728,697.617493 703.152466,696.573669 
	C697.192383,695.794189 691.048462,696.419983 685.111389,696.419983 
	C685.111389,713.186340 685.111389,729.576843 685.111389,745.877380 
	C688.411377,745.877380 691.311157,745.877380 694.683228,745.877380 
	C694.683228,740.339111 694.683228,735.172668 694.683228,730.006165 
	C698.374634,734.424561 701.062378,739.141418 704.014709,743.686279 
	C704.788574,744.877686 706.300964,746.134583 707.618164,746.315979 
	C710.497864,746.712646 713.469971,746.438721 717.027771,746.438721 
	C712.789612,739.548889 709.059570,733.485046 705.884033,726.981934 
M633.336182,736.869995 
	C641.530090,734.775818 640.503357,742.508911 642.775391,745.885925 
	C646.326477,745.885925 649.364502,745.885925 652.671326,745.885925 
	C647.059814,730.004150 641.477478,714.669739 636.299988,699.199829 
	C635.116455,695.663513 633.032349,695.641235 630.292053,695.814148 
	C627.474426,695.991882 624.629883,695.022705 623.205627,699.240723 
	C618.307312,713.747742 612.920410,728.089661 607.742920,742.502869 
	C607.327515,743.659241 607.089294,744.879333 606.717773,746.259277 
	C610.319336,746.259277 613.445740,746.259277 616.494263,746.259277 
	C620.453308,736.877747 620.453308,736.877808 630.883545,736.878418 
	C631.383362,736.878479 631.883240,736.875793 633.336182,736.869995 
M767.471741,704.432739 
	C771.102661,704.432739 774.733582,704.432739 778.409424,704.432739 
	C778.409424,701.303101 778.409424,698.751648 778.409424,696.377808 
	C768.788330,696.377808 759.544983,696.377808 750.454468,696.377808 
	C750.454468,713.192017 750.454468,729.595947 750.454468,746.119629 
	C760.121094,746.119629 769.385864,746.119629 778.680542,746.119629 
	C778.680542,743.410767 778.680542,740.979675 778.680542,737.983704 
	C772.359558,737.983704 766.282410,737.983704 760.259216,737.983704 
	C760.259216,733.027527 760.259216,728.647400 760.259216,723.814575 
	C766.053528,723.814575 771.475159,723.814575 776.835266,723.814575 
	C776.835266,720.946899 776.835266,718.548218 776.835266,715.758057 
	C771.072205,715.758057 765.643005,715.758057 760.136536,715.758057 
	C760.136536,711.779480 760.136536,708.214783 760.136536,704.433594 
	C762.493652,704.433594 764.487610,704.433594 767.471741,704.432739 
M254.165726,736.860840 
	C247.709290,733.056885 249.565277,740.601074 246.237869,741.907959 
	C251.722672,746.420105 257.403259,747.681824 263.532684,746.919189 
	C271.617340,745.913269 276.821930,739.808716 276.600677,731.890381 
	C276.442535,726.232422 273.517273,722.173584 268.939758,719.182434 
	C266.156860,717.363892 262.857544,716.098389 260.602844,713.790466 
	C259.047272,712.198181 258.882385,709.247253 258.096008,706.903503 
	C260.576447,706.084473 263.026428,704.772766 265.547882,704.616821 
	C267.272980,704.510193 269.097656,706.013977 271.223572,706.950073 
	C272.489960,704.436340 273.711212,702.012329 275.062012,699.331116 
	C272.758636,698.170410 271.064514,697.089417 269.220093,696.426758 
	C261.281830,693.574524 252.430099,696.708130 249.359161,703.340820 
	C246.020889,710.550842 248.534576,717.489380 256.279968,722.360962 
	C258.672913,723.866028 261.170044,725.212891 263.505249,726.800293 
	C266.352203,728.735535 268.152863,731.416382 266.695160,734.884460 
	C265.240845,738.344666 262.031555,738.855591 258.677673,738.337952 
	C257.384064,738.138245 256.147430,737.569275 254.165726,736.860840 
M403.013062,724.782654 
	C408.556122,724.431824 414.099182,724.080994 419.868225,723.715881 
	C419.868225,721.190247 419.868225,718.796204 419.868225,715.778687 
	C414.089233,715.778687 408.531586,715.778687 403.194672,715.778687 
	C403.194672,711.602661 403.194672,708.058167 403.194672,704.067688 
	C409.378876,704.067688 415.121979,704.067688 420.820984,704.067688 
	C420.820984,701.180847 420.820984,698.763733 420.820984,696.307495 
	C411.457825,696.307495 402.394684,696.307495 393.177765,696.307495 
	C393.177765,713.061401 393.177765,729.478760 393.177765,746.082825 
	C396.449280,746.082825 399.496033,746.082825 402.834595,746.082825 
	C402.834595,739.031067 402.834595,732.380310 403.013062,724.782654 
M483.162811,704.396118 
	C484.399811,704.262939 485.636810,704.129700 486.710083,704.014160 
	C486.710083,701.166870 486.710083,698.744629 486.710083,696.139954 
	C474.641479,696.139954 462.877380,696.139954 450.924438,696.139954 
	C450.924438,698.927002 450.924438,701.514282 450.924438,704.589355 
	C455.085449,704.589355 459.003113,704.589355 463.609955,704.589355 
	C463.609955,718.775269 463.609955,732.488037 463.609955,746.120605 
	C467.123627,746.120605 469.912842,746.120605 473.243896,746.120605 
	C473.243896,732.131836 473.243896,718.405090 473.243896,704.383545 
	C476.604370,704.383545 479.420685,704.383545 483.162811,704.396118 
z"/>
<path fill="#204B46" opacity="1.000000" stroke="none" 
	d="
M477.651794,628.104614 
	C462.563995,615.922668 447.476227,603.740784 432.143127,590.936951 
	C427.832123,586.566284 427.809814,581.748535 427.870544,576.681091 
	C427.941010,570.795654 427.353607,564.902405 427.051758,559.012512 
	C426.977936,549.073608 426.904114,539.134705 426.805664,528.333984 
	C425.160278,527.005981 423.540344,526.136292 421.918610,526.132874 
	C386.103180,526.056763 350.287567,526.071472 314.471985,526.082520 
	C307.959137,526.084473 307.081757,526.998169 307.080292,533.697144 
	C307.073029,567.013977 307.020569,600.330933 307.148254,633.647278 
	C307.163269,637.567871 306.390778,639.236816 301.988098,639.171692 
	C285.333313,638.925537 268.671692,638.973450 252.015106,639.147034 
	C248.197495,639.186768 246.834702,638.243896 246.838394,634.149475 
	C246.943481,517.374084 246.942368,400.598572 246.837158,283.823212 
	C246.833481,279.738739 248.189087,278.770142 252.015167,278.809631 
	C268.838379,278.983246 285.664612,278.925507 302.489105,278.836121 
	C304.356201,278.826202 306.219391,278.079590 308.084412,277.674652 
	C308.388550,279.371857 308.957397,281.068878 308.958588,282.766296 
	C308.999847,341.714813 308.987610,400.663361 308.982971,459.611908 
	C308.982849,461.105133 308.982941,462.598328 308.982941,464.488495 
	C348.182556,464.488495 387.198975,464.488495 426.888702,464.488495 
	C426.888702,462.603607 426.888336,460.672607 426.888763,458.741638 
	C426.897644,418.776520 426.865540,378.811279 427.028564,338.846771 
	C427.037323,336.699005 428.109467,333.928680 429.658752,332.509430 
	C448.441772,315.303345 467.407654,298.296783 487.053589,281.124908 
	C491.791656,281.846832 489.960541,285.078033 489.962341,287.135986 
	C490.060577,399.941925 490.046844,512.747925 490.044128,625.553955 
	C490.044098,626.553711 489.967773,627.559387 490.050476,628.552002 
	C490.267975,631.162048 489.064423,632.189453 486.519318,632.041809 
	C485.197021,631.965027 483.859558,632.150330 482.528931,632.217224 
	C481.765869,631.670837 481.002838,631.124451 480.053833,629.981140 
	C479.129181,628.957703 478.390472,628.531189 477.651794,628.104614 
z"/>
<path fill="#214C46" opacity="1.000000" stroke="none" 
	d="
M650.014404,373.945343 
	C651.076721,373.947540 652.139099,373.949768 653.695190,374.410522 
	C658.801453,375.212952 663.414062,375.556793 668.026611,375.900665 
	C668.766357,375.957062 669.506165,376.013458 670.673157,376.483795 
	C672.072632,376.910156 673.044861,376.922577 674.017090,376.934998 
	C674.185669,376.920807 674.354248,376.906647 674.944336,377.284454 
	C677.916504,378.095062 680.467163,378.513641 683.017883,378.932251 
	C715.321045,386.690002 740.844421,404.135071 756.097168,433.881805 
	C779.762146,480.034546 780.809021,527.631714 758.873169,574.505981 
	C741.453247,611.730469 709.943665,631.598999 669.917236,637.946533 
	C657.304565,639.946655 644.389343,640.633362 631.598206,640.795959 
	C600.440796,641.192017 569.275024,640.929138 538.112610,640.931519 
	C535.636169,640.931702 533.159729,640.931519 530.319458,640.931519 
	C530.319458,595.688416 530.319458,550.781982 530.319458,505.320007 
	C531.597839,505.908630 532.904175,506.375702 534.076172,507.069763 
	C553.847351,518.778015 573.575378,530.559753 593.391724,542.190918 
	C596.034302,543.742004 596.980469,545.522217 596.921265,548.558228 
	C596.733154,558.205078 596.851685,567.857910 596.851685,577.314880 
	C597.322083,577.722717 597.569824,578.122681 597.806396,578.116272 
	C617.927551,577.567261 638.235718,578.502625 658.122437,576.038574 
	C685.170715,572.687134 700.819336,555.377502 706.455933,528.997437 
	C709.699402,513.817078 709.836243,498.577209 706.262512,483.395752 
	C700.636353,459.495422 685.792114,444.593964 661.971375,439.044647 
	C654.240906,437.243713 646.208679,436.216919 638.274658,435.926483 
	C624.673706,435.428589 611.041443,435.788971 596.985596,435.788971 
	C596.985596,464.050171 596.985596,491.954895 596.985596,520.736328 
	C576.049500,508.276428 555.820435,496.237305 535.248962,483.640564 
	C531.077454,480.585297 530.501038,476.870636 530.963806,472.722900 
	C531.092163,471.571869 530.970337,470.394012 530.982544,469.228699 
	C531.294861,439.464264 531.706909,409.700256 531.819641,379.935089 
	C531.836548,375.469849 533.560364,374.820068 537.406738,374.832611 
	C573.036560,374.948761 608.666992,374.917023 644.297180,374.862183 
	C646.203369,374.859253 648.108704,374.264557 650.014404,373.945343 
z"/>
<path fill="#264F4C" opacity="1.000000" stroke="none" 
	d="
M542.451538,732.675964 
	C541.943115,734.508545 541.559814,735.957275 541.180481,737.407043 
	C538.558899,747.425964 538.559204,747.426025 527.530090,746.047913 
	C523.293091,729.574707 519.034302,713.016724 514.691040,696.130371 
	C518.181152,696.130371 521.286011,696.130371 524.820740,696.130371 
	C527.656494,707.730591 530.492004,719.330139 533.327576,730.929749 
	C533.596924,730.983948 533.866272,731.038147 534.135681,731.092407 
	C534.959534,728.144287 535.796997,725.199829 536.604614,722.247253 
	C538.492920,715.343811 540.698792,708.504578 542.136108,701.507935 
	C543.182251,696.415466 545.747620,694.965515 551.111633,696.334717 
	C554.179565,707.510132 557.350403,719.060181 560.521179,730.610229 
	C560.872559,730.624207 561.223938,730.638245 561.575317,730.652222 
	C564.514343,719.192017 567.453430,707.731750 570.425049,696.144470 
	C573.722473,696.144470 576.824463,696.144470 580.316528,696.144470 
	C576.157593,712.375549 572.080872,728.304138 567.978394,744.226013 
	C567.820435,744.838928 567.454224,745.862671 567.114990,745.892334 
	C563.823242,746.179688 560.451782,746.719543 557.249207,746.230469 
	C556.125183,746.058777 555.075867,743.339172 554.557739,741.613342 
	C552.214844,733.809814 550.074402,725.945435 546.724487,717.900513 
	C545.342468,722.697876 543.960510,727.495239 542.451538,732.675964 
z"/>
<path fill="#3E6461" opacity="1.000000" stroke="none" 
	d="
M307.709534,277.500610 
	C306.219391,278.079590 304.356201,278.826202 302.489105,278.836121 
	C285.664612,278.925507 268.838379,278.983246 252.015167,278.809631 
	C248.189087,278.770142 246.833481,279.738739 246.837158,283.823212 
	C246.942368,400.598572 246.943481,517.374084 246.838394,634.149475 
	C246.834702,638.243896 248.197495,639.186768 252.015106,639.147034 
	C268.671692,638.973450 285.333313,638.925537 301.988098,639.171692 
	C306.390778,639.236816 307.163269,637.567871 307.148254,633.647278 
	C307.020569,600.330933 307.073029,567.013977 307.080292,533.697144 
	C307.081757,526.998169 307.959137,526.084473 314.471985,526.082520 
	C350.287567,526.071472 386.103180,526.056763 421.918610,526.132874 
	C423.540344,526.136292 425.160278,527.005981 426.815613,527.884033 
	C421.027832,528.232605 415.205505,528.118286 409.383087,528.114624 
	C377.738464,528.094543 346.093842,528.101685 314.449219,528.099487 
	C312.796051,528.099426 311.142883,528.099548 309.168488,528.099548 
	C309.168488,565.675781 309.168488,602.935425 309.168488,640.614624 
	C287.814240,640.614624 266.777802,640.614624 245.365387,640.614624 
	C245.365387,519.713501 245.365387,398.761597 245.365387,277.326569 
	C266.125519,277.326569 286.730103,277.326569 307.709534,277.500610 
z"/>
<path fill="#264F4C" opacity="1.000000" stroke="none" 
	d="
M316.922333,742.110352 
	C307.302734,733.604919 304.490906,721.945679 309.106964,710.735535 
	C313.279449,700.602661 323.371185,694.604858 335.180634,695.239319 
	C345.998047,695.820557 355.467224,703.501587 358.407318,714.079956 
	C361.265442,724.363403 357.624207,735.629211 349.440857,741.821594 
	C340.249664,748.776550 327.856689,748.965698 316.922333,742.110352 
M344.431763,733.998779 
	C345.761444,732.105896 347.433624,730.365540 348.356750,728.291748 
	C351.152130,722.011780 350.540710,715.909668 346.241486,710.470398 
	C342.195282,705.351196 336.785889,703.179382 330.332581,704.495422 
	C323.315125,705.926453 318.825806,710.300964 317.210419,717.277283 
	C315.546173,724.464294 318.523407,731.823547 324.324158,735.677124 
	C330.078003,739.499451 337.068634,739.078064 344.431763,733.998779 
z"/>
<path fill="#234D4A" opacity="1.000000" stroke="none" 
	d="
M705.606812,727.201538 
	C709.059570,733.485046 712.789612,739.548889 717.027771,746.438721 
	C713.469971,746.438721 710.497864,746.712646 707.618164,746.315979 
	C706.300964,746.134583 704.788574,744.877686 704.014709,743.686279 
	C701.062378,739.141418 698.374634,734.424561 694.683228,730.006165 
	C694.683228,735.172668 694.683228,740.339111 694.683228,745.877380 
	C691.311157,745.877380 688.411377,745.877380 685.111389,745.877380 
	C685.111389,729.576843 685.111389,713.186340 685.111389,696.419983 
	C691.048462,696.419983 697.192383,695.794189 703.152466,696.573669 
	C711.133728,697.617493 716.249695,703.274841 716.966980,710.249146 
	C717.808289,718.429321 714.492432,723.435547 705.606812,727.201538 
M694.108276,706.151123 
	C694.108276,710.901672 694.108276,715.652222 694.108276,721.125732 
	C697.109680,720.752014 699.550781,720.716370 701.836182,720.101562 
	C705.396545,719.143677 707.940918,716.467773 707.278259,712.896118 
	C706.776917,710.194153 704.879883,706.938904 702.617432,705.611633 
	C700.489807,704.363525 697.069885,705.318359 694.108276,706.151123 
z"/>
<path fill="#264E4B" opacity="1.000000" stroke="none" 
	d="
M632.859619,736.872192 
	C631.883240,736.875793 631.383362,736.878479 630.883545,736.878418 
	C620.453308,736.877808 620.453308,736.877747 616.494263,746.259277 
	C613.445740,746.259277 610.319336,746.259277 606.717773,746.259277 
	C607.089294,744.879333 607.327515,743.659241 607.742920,742.502869 
	C612.920410,728.089661 618.307312,713.747742 623.205627,699.240723 
	C624.629883,695.022705 627.474426,695.991882 630.292053,695.814148 
	C633.032349,695.641235 635.116455,695.663513 636.299988,699.199829 
	C641.477478,714.669739 647.059814,730.004150 652.671326,745.885925 
	C649.364502,745.885925 646.326477,745.885925 642.775391,745.885925 
	C640.503357,742.508911 641.530090,734.775818 632.859619,736.872192 
M629.525757,709.517578 
	C627.299072,715.790649 625.072327,722.063660 622.779968,728.521729 
	C627.660339,728.521729 631.724548,728.521729 636.383606,728.521729 
	C634.193848,722.066956 632.139099,716.010071 629.525757,709.517578 
z"/>
<path fill="#26514D" opacity="1.000000" stroke="none" 
	d="
M766.976624,704.433167 
	C764.487610,704.433594 762.493652,704.433594 760.136536,704.433594 
	C760.136536,708.214783 760.136536,711.779480 760.136536,715.758057 
	C765.643005,715.758057 771.072205,715.758057 776.835266,715.758057 
	C776.835266,718.548218 776.835266,720.946899 776.835266,723.814575 
	C771.475159,723.814575 766.053528,723.814575 760.259216,723.814575 
	C760.259216,728.647400 760.259216,733.027527 760.259216,737.983704 
	C766.282410,737.983704 772.359558,737.983704 778.680542,737.983704 
	C778.680542,740.979675 778.680542,743.410767 778.680542,746.119629 
	C769.385864,746.119629 760.121094,746.119629 750.454468,746.119629 
	C750.454468,729.595947 750.454468,713.192017 750.454468,696.377808 
	C759.544983,696.377808 768.788330,696.377808 778.409424,696.377808 
	C778.409424,698.751648 778.409424,701.303101 778.409424,704.432739 
	C774.733582,704.432739 771.102661,704.432739 766.976624,704.433167 
z"/>
<path fill="#26514D" opacity="1.000000" stroke="none" 
	d="
M254.525299,737.014709 
	C256.147430,737.569275 257.384064,738.138245 258.677673,738.337952 
	C262.031555,738.855591 265.240845,738.344666 266.695160,734.884460 
	C268.152863,731.416382 266.352203,728.735535 263.505249,726.800293 
	C261.170044,725.212891 258.672913,723.866028 256.279968,722.360962 
	C248.534576,717.489380 246.020889,710.550842 249.359161,703.340820 
	C252.430099,696.708130 261.281830,693.574524 269.220093,696.426758 
	C271.064514,697.089417 272.758636,698.170410 275.062012,699.331116 
	C273.711212,702.012329 272.489960,704.436340 271.223572,706.950073 
	C269.097656,706.013977 267.272980,704.510193 265.547882,704.616821 
	C263.026428,704.772766 260.576447,706.084473 258.096008,706.903503 
	C258.882385,709.247253 259.047272,712.198181 260.602844,713.790466 
	C262.857544,716.098389 266.156860,717.363892 268.939758,719.182434 
	C273.517273,722.173584 276.442535,726.232422 276.600677,731.890381 
	C276.821930,739.808716 271.617340,745.913269 263.532684,746.919189 
	C257.403259,747.681824 251.722672,746.420105 246.237869,741.907959 
	C249.565277,740.601074 247.709290,733.056885 254.525299,737.014709 
z"/>
<path fill="#264F4C" opacity="1.000000" stroke="none" 
	d="
M402.923828,725.256104 
	C402.834595,732.380310 402.834595,739.031067 402.834595,746.082825 
	C399.496033,746.082825 396.449280,746.082825 393.177765,746.082825 
	C393.177765,729.478760 393.177765,713.061401 393.177765,696.307495 
	C402.394684,696.307495 411.457825,696.307495 420.820984,696.307495 
	C420.820984,698.763733 420.820984,701.180847 420.820984,704.067688 
	C415.121979,704.067688 409.378876,704.067688 403.194672,704.067688 
	C403.194672,708.058167 403.194672,711.602661 403.194672,715.778687 
	C408.531586,715.778687 414.089233,715.778687 419.868225,715.778687 
	C419.868225,718.796204 419.868225,721.190247 419.868225,723.715881 
	C414.099182,724.080994 408.556122,724.431824 402.923828,725.256104 
z"/>
<path fill="#365C5A" opacity="1.000000" stroke="none" 
	d="
M482.701965,632.514771 
	C483.859558,632.150330 485.197021,631.965027 486.519318,632.041809 
	C489.064423,632.189453 490.267975,631.162048 490.050476,628.552002 
	C489.967773,627.559387 490.044098,626.553711 490.044128,625.553955 
	C490.046844,512.747925 490.060577,399.941925 489.962341,287.135986 
	C489.960541,285.078033 491.791656,281.846832 487.358887,280.991486 
	C488.076935,279.576538 489.217316,278.181610 490.357697,276.786652 
	C490.714417,276.978668 491.071167,277.170685 491.427887,277.362701 
	C491.427887,397.929993 491.427887,518.497253 491.427887,639.865173 
	C488.377960,637.350159 485.626495,635.081238 482.701965,632.514771 
z"/>
<path fill="#234D4A" opacity="1.000000" stroke="none" 
	d="
M482.699890,704.389832 
	C479.420685,704.383545 476.604370,704.383545 473.243896,704.383545 
	C473.243896,718.405090 473.243896,732.131836 473.243896,746.120605 
	C469.912842,746.120605 467.123627,746.120605 463.609955,746.120605 
	C463.609955,732.488037 463.609955,718.775269 463.609955,704.589355 
	C459.003113,704.589355 455.085449,704.589355 450.924438,704.589355 
	C450.924438,701.514282 450.924438,698.927002 450.924438,696.139954 
	C462.877380,696.139954 474.641479,696.139954 486.710083,696.139954 
	C486.710083,698.744629 486.710083,701.166870 486.710083,704.014160 
	C485.636810,704.129700 484.399811,704.262939 482.699890,704.389832 
z"/>
<path fill="#3E6461" opacity="1.000000" stroke="none" 
	d="
M649.628174,373.817169 
	C648.108704,374.264557 646.203369,374.859253 644.297180,374.862183 
	C608.666992,374.917023 573.036560,374.948761 537.406738,374.832611 
	C533.560364,374.820068 531.836548,375.469849 531.819641,379.935089 
	C531.706909,409.700256 531.294861,439.464264 530.982544,469.228699 
	C530.970337,470.394012 531.092163,471.571869 530.963806,472.722900 
	C530.501038,476.870636 531.077454,480.585297 534.973755,483.425842 
	C530.850769,482.589569 529.769104,479.853302 529.793457,475.569672 
	C529.978149,443.080353 529.899170,410.589539 529.902405,378.099213 
	C529.902527,376.634857 529.902466,375.170532 529.902466,373.483490 
	C531.846375,373.392944 533.318481,373.265045 534.790588,373.264496 
	C570.113464,373.251465 605.436401,373.242126 640.759277,373.269287 
	C643.586975,373.271484 646.414368,373.542755 649.628174,373.817169 
z"/>
<path fill="#3E6461" opacity="1.000000" stroke="none" 
	d="
M426.941559,559.398804 
	C427.353607,564.902405 427.941010,570.795654 427.870544,576.681091 
	C427.809814,581.748535 427.832123,586.566284 431.942200,590.672241 
	C427.847839,589.188293 426.491974,586.080017 426.720459,581.547974 
	C427.085327,574.310242 426.826508,567.041016 426.941559,559.398804 
z"/>
<path fill="#3E6461" opacity="1.000000" stroke="none" 
	d="
M667.703857,375.706177 
	C663.414062,375.556793 658.801453,375.212952 654.080017,374.519287 
	C658.441162,374.616882 662.911133,375.064270 667.703857,375.706177 
z"/>
<path fill="#3E6461" opacity="1.000000" stroke="none" 
	d="
M682.716187,378.731659 
	C680.467163,378.513641 677.916504,378.095062 675.181519,377.374481 
	C677.469666,377.558716 679.942078,378.044891 682.716187,378.731659 
z"/>
<path fill="#3E6461" opacity="1.000000" stroke="none" 
	d="
M673.744995,376.762024 
	C673.044861,376.922577 672.072632,376.910156 671.025757,376.604034 
	C671.791687,376.403229 672.632263,376.496155 673.744995,376.762024 
z"/>
<path fill="#365C5A" opacity="1.000000" stroke="none" 
	d="
M477.791199,628.387146 
	C478.390472,628.531189 479.129181,628.957703 479.915588,629.733887 
	C479.285767,629.612244 478.608215,629.140991 477.791199,628.387146 
z"/>
<path fill="#F7F8F9" opacity="1.000000" stroke="none" 
	d="
M344.155334,734.248596 
	C337.068634,739.078064 330.078003,739.499451 324.324158,735.677124 
	C318.523407,731.823547 315.546173,724.464294 317.210419,717.277283 
	C318.825806,710.300964 323.315125,705.926453 330.332581,704.495422 
	C336.785889,703.179382 342.195282,705.351196 346.241486,710.470398 
	C350.540710,715.909668 351.152130,722.011780 348.356750,728.291748 
	C347.433624,730.365540 345.761444,732.105896 344.155334,734.248596 
z"/>
<path fill="#F7F8F9" opacity="1.000000" stroke="none" 
	d="
M694.163452,705.727539 
	C697.069885,705.318359 700.489807,704.363525 702.617432,705.611633 
	C704.879883,706.938904 706.776917,710.194153 707.278259,712.896118 
	C707.940918,716.467773 705.396545,719.143677 701.836182,720.101562 
	C699.550781,720.716370 697.109680,720.752014 694.108276,721.125732 
	C694.108276,715.652222 694.108276,710.901672 694.163452,705.727539 
z"/>
<path fill="#EDF0EF" opacity="1.000000" stroke="none" 
	d="
M629.805054,709.735352 
	C632.139099,716.010071 634.193848,722.066956 636.383606,728.521729 
	C631.724548,728.521729 627.660339,728.521729 622.779968,728.521729 
	C625.072327,722.063660 627.299072,715.790649 629.805054,709.735352 
z"/>
</svg>